inDegrees=no
num_controls=7
num_derivatives=13
num_iterations=286
num_multipliers=7
num_parameters=0
num_slacks=7
num_states=26
objective=0.345701
objective_accelerations=0.000000
objective_balance=0.002724
objective_effort=0.092140
objective_height=0.220087
objective_ligament=0.030751
solver_duration=4000.519559
status=Solve_Succeeded
success=true
DataType=double
version=3
OpenSimVersion=4.5
endheader
time	/jointset/ground_pelvis/pelvis_tilt/value	/jointset/ground_pelvis/pelvis_tx/value	/jointset/ground_pelvis/pelvis_ty/value	/jointset/hip_l/hip_flexion_l/value	/jointset/hip_l/hip_adduction_l/value	/jointset/hip_l/hip_rotation_l/value	/jointset/back/lumbar_extension/value	/jointset/patellofemoral_l/patellar_flexion_l/value	/jointset/knee_l/knee_flexion_l/value	/jointset/knee_l/knee_adduction_l/value	/jointset/knee_l/knee_rotation_l/value	/jointset/ankle_l/ankle_angle_l/value	/jointset/subtalar_l/subtalar_angle_l/value	/jointset/ground_pelvis/pelvis_tilt/speed	/jointset/ground_pelvis/pelvis_tx/speed	/jointset/ground_pelvis/pelvis_ty/speed	/jointset/hip_l/hip_flexion_l/speed	/jointset/hip_l/hip_adduction_l/speed	/jointset/hip_l/hip_rotation_l/speed	/jointset/back/lumbar_extension/speed	/jointset/patellofemoral_l/patellar_flexion_l/speed	/jointset/knee_l/knee_flexion_l/speed	/jointset/knee_l/knee_adduction_l/speed	/jointset/knee_l/knee_rotation_l/speed	/jointset/ankle_l/ankle_angle_l/speed	/jointset/subtalar_l/subtalar_angle_l/speed	/forceset/tau_hip_flexion_l	/forceset/tau_hip_adduction_l	/forceset/tau_hip_rotation_l	/forceset/tau_knee_flexion_l	/forceset/tau_ankle_angle_l	/forceset/tau_subtalar_angle_l	/forceset/tau_lumbar_extension	lambda_cid13_p0	lambda_cid13_p1	lambda_cid13_p2	lambda_cid13_p3	lambda_cid13_p4	lambda_cid13_p5	lambda_cid14_p0	/jointset/ground_pelvis/pelvis_tilt/accel	/jointset/ground_pelvis/pelvis_tx/accel	/jointset/ground_pelvis/pelvis_ty/accel	/jointset/hip_l/hip_flexion_l/accel	/jointset/hip_l/hip_adduction_l/accel	/jointset/hip_l/hip_rotation_l/accel	/jointset/back/lumbar_extension/accel	/jointset/patellofemoral_l/patellar_flexion_l/accel	/jointset/knee_l/knee_flexion_l/accel	/jointset/knee_l/knee_adduction_l/accel	/jointset/knee_l/knee_rotation_l/accel	/jointset/ankle_l/ankle_angle_l/accel	/jointset/subtalar_l/subtalar_angle_l/accel	gamma_cid13_p0	gamma_cid13_p1	gamma_cid13_p2	gamma_cid13_p3	gamma_cid13_p4	gamma_cid13_p5	gamma_cid14_p0
0.5	-0.06086289008581058	-0.09102608974358256	0.4123787597810128	2.094390616414041	-0.2378225895909558	0.3425217035936247	-0.9047288721687381	2.094376988000605	2.094376988000606	-0.0002422339580761051	-0.1745277063440241	0.1988897333067143	0.1388914261569779	0.3943706779084368	-0.1553843090564399	-0.06520129421178576	-0.0001617402519426937	0.09561662919341167	0.1473213717022776	-1.130032298834019	-0.001266328865078038	-0.001266328865078017	-0.1064808832257374	-0.0007170941239126062	-0.4277795800147027	-0.09784667381876115	-0.3789963093542488	-0.1167318667599578	0.02228696387704005	-0.4420256921701403	0.2926150017892606	0.001070801995066791	0.5083430265148484	38.2589158039918	-1.526318775723578	-6.650453545857417	-96.5591487177267	-879.9304169872773	-121.4987807008352	-0.01993657626297257	-6.82462341764	2.13430266053738	0.8920757660614109	-0.01063919953870278	2.518298322295861	13.6156378464118	15.33518903911929	0.4148192779836514	0.4148192779836575	-10.9931708934969	0.3513729297611971	6.505691139659884	6.271606953062713	1.761952053970223e-06	2.439008049009084e-06	-3.627405653009783e-06	4.703885704161109e-07	-1.013485657222281e-06	-1.087936370792469e-06	1.708993604296614e-06
0.51	-0.05724324730323846	-0.09247444801487076	0.4117710744995192	2.094387797272218	-0.236780646513352	0.3445182444922652	-0.9152876978352968	2.094380099715557	2.094380099715551	-0.001733149955568903	-0.1745250491040005	0.1949270943939279	0.1381722696695179	0.3311355984748667	-0.1343874634064488	-0.05638671717613102	-0.0003149551839526788	0.1087542450555808	0.2357653670298322	-0.9840234033097746	0.001370163442867553	0.001370163442867566	-0.1788687357707044	0.0007913151184710709	-0.365734706919338	-0.05128854261350439	-0.3730977378135613	-0.1173933398937193	0.01978239078082076	-0.4350651461558773	0.288639243048422	-0.001799735477582248	0.500468897603492	37.26205682052925	-0.05828175898575026	-6.937987088104553	-91.74746938525561	-869.5783692355681	-117.0593892095886	-0.01974702105698308	-5.836076789622962	2.067467450617196	0.8683589599485343	-0.004400782411796181	0.1097585304081578	4.025661789046967	13.89015448426939	0.1100321620579046	0.1100321620578986	-3.436258832410601	-0.01851482503758261	5.906305144703535	3.052129823140467	1.227479008685183e-06	2.408202997722904e-06	-2.270709510523012e-06	3.94502733778773e-07	-5.020416532853553e-07	1.757623481644155e-06	9.887942946603736e-07
0.52	-0.05420858063168355	-0.0937158194429816	0.4112499770459082	2.094386098352608	-0.2357276742146803	0.3469126016268055	-0.9244551516115745	2.09439396994456	2.094393969944554	-0.003562877757993372	-0.1745211257208522	0.1915553881621409	0.1377595372178871	0.2773754557049984	-0.1139869404209689	-0.04788372863523234	6.230418885134285e-05	0.09782247340697893	0.2268846188821738	-0.8517579207778359	0.0008853739451287351	0.0008853739451287129	-0.1742432442122321	-0.0004638654997266241	-0.3095930438148224	-0.03656186665291505	-0.3671991662728738	-0.1180548130274809	0.01727781768460222	-0.4281046001416143	0.2846634843075833	-0.004670272950231457	0.4925947686921356	36.29613823283361	1.401439667783137	-7.220866900523342	-87.48806394072759	-859.1142188038344	-112.6508661237085	-0.01954056373924858	-4.929636084899636	2.015038127635173	0.8297580671102037	0.095455661424085	-2.295579179858324	-5.849310848630806	12.5865064406581	-0.2094370831532381	-0.2094370831532373	4.409497927190931	-0.2013450423550733	5.325049141490046	-0.09468409587076425	5.729313248834634e-07	1.907468596047341e-07	-3.283640585542877e-07	8.372727612808651e-08	-3.693690300299421e-08	-5.664091904220743e-07	4.02629790695318e-07
0.53	-0.05167533349816541	-0.09475781382013099	0.4108118222313603	2.094388989330009	-0.2348493523172027	0.3489281287293336	-0.9323587240292157	2.094394547989367	2.094394547989448	-0.005112701957986084	-0.174528107307885	0.1887210297677829	0.1374047630734384	0.2297770741640369	-0.09467837963441615	-0.03984515735178969	0.0003640955106267655	0.07929920356284949	0.1806020363590757	-0.7303224937538948	-0.0005031076079249642	-0.0005031076079249546	-0.1389594069334071	-0.0004214741991242595	-0.2577390482823905	-0.03289217636111225	-0.3617098028393447	-0.1150096668779983	0.01815505742340336	-0.4250943855102429	0.2784714455474396	-0.003917513687260318	0.4841878862095242	34.73038995379896	1.149747682009654	-6.953525394288087	-81.12862743076978	-849.451443999381	-113.5967944475718	-0.0198324910945668	-4.599397361265282	1.84878245868502	0.7762596694335723	-0.02514700783311854	-1.412319521445511	-3.360534595414172	11.7171711827374	-0.06357403402969493	-0.06357403402969275	2.602122627164946	0.183776792218816	5.04653245075539	0.8229775898535628	1.656326839645889e-07	-6.673536412685942e-07	5.023310957361405e-07	-7.828084310276616e-08	2.315091793002881e-07	-1.155946818301662e-06	4.901773172600266e-08
